<?xml version="1.0" standalone="no"?><!DOCTYPE svg PUBLIC "-//W3C//DTD SVG 1.1//EN" "http://www.w3.org/Graphics/SVG/1.1/DTD/svg11.dtd"><svg t="1581244322384" class="icon" viewBox="0 0 1024 1024" version="1.1" xmlns="http://www.w3.org/2000/svg" p-id="10112" xmlns:xlink="http://www.w3.org/1999/xlink" width="200" height="200"><defs><style type="text/css"></style></defs><path d="M937.71821511 90.14234075H94.04537363c-38.84342992 0-70.32134163 31.47669808-70.32134163 70.320128v703.0750625c0 38.84342992 31.4779117 70.32134163 70.32134163 70.32134164H937.71700148c38.84342992 0 70.32134163-31.4779117 70.32134163-70.32134164V160.46246875c0-38.84342992-31.4779117-70.32134163-70.32134163-70.32134164z m-105.43771496 70.320128a35.20375467 35.20375467 0 1 1-0.04369067 70.36381866 35.20375467 35.20375467 0 0 1 0.04369067-70.36381866z m-140.64146963 0a35.20375467 35.20375467 0 1 1 0 70.40750933 35.20375467 35.20375467 0 0 1 0-70.40750933z m-140.59656534 0a35.160064 35.160064 0 1 1 0 70.320128 35.160064 35.160064 0 0 1 0-70.320128zM937.71700148 828.37746725a35.11637333 35.11637333 0 0 1-35.160064 35.160064H129.20543763a35.20375467 35.20375467 0 0 1-35.160064-35.15885036V302.15494163H937.71700148v526.221312z m0 0" fill="#544364" p-id="10113"></path><path d="M244.98934518 782.958592a35.160064 35.160064 0 0 0 49.71512415 0l175.53938964-175.53938963a34.98530133 34.98530133 0 0 0 10.30250192-24.98863407 34.94039703 34.94039703 0 0 0-10.30371556-24.94615705l-175.538176-175.53938962a35.160064 35.160064 0 0 0-49.71512415 49.71633778l150.7692089 150.76920889-150.7692089 150.81289955a35.07268267 35.07268267 0 0 0 0 49.71512415z m200.61540504-24.90125275c0 19.42050133 15.69465837 35.15885037 35.160064 35.15885038h281.2392486a35.20375467 35.20375467 0 0 0 0-70.320128H480.76481422a35.11637333 35.11637333 0 0 0-35.160064 35.16127762zM244.98934518 782.958592" fill="#544364" p-id="10114"></path></svg>