<?xml version="1.0" standalone="no"?><!DOCTYPE svg PUBLIC "-//W3C//DTD SVG 1.1//EN" "http://www.w3.org/Graphics/SVG/1.1/DTD/svg11.dtd"><svg t="1581251476028" class="icon" viewBox="0 0 1227 1024" version="1.1" xmlns="http://www.w3.org/2000/svg" p-id="23593" xmlns:xlink="http://www.w3.org/1999/xlink" width="239.6484375" height="200"><defs><style type="text/css"></style></defs><path d="M600.459975 1023.98543c-16.792859 0-33.688718-0.869993-50.430578-2.457979l-1.023992-0.152999-9.983916-1.433988h-2.047983c-7.935934 0-15.154873-1.17699-22.834809-2.303981l-3.429971-0.613995h-0.153999l-0.716994-0.102999-1.586987-0.459996c-1.17699-0.255998-2.763977-0.716994-4.811959-0.869993a142.098811 142.098811 0 0 0-6.04195-1.433988c-1.023991-0.153999-2.047983-0.409997-3.071974-0.716994a62.462477 62.462477 0 0 0-5.733952-1.330988l-3.327972-0.716994-1.330989-0.255998-1.279989-0.306998a183.650463 183.650463 0 0 1-27.903767-7.065941c-2.303981-0.869993-4.351964-1.432988-6.092949-2.047982-0.511996-0.152999-1.279989-0.255998-1.842984-0.562996l-1.330989-0.459996-1.433988-0.256998a57.34252 57.34252 0 0 1-5.221957-1.432988l-1.023991-0.307997-1.023991-0.306998a209.04525 209.04525 0 0 1-30.872742-11.109907l-9.829918-5.068957-1.023991-0.409997a472.770043 472.770043 0 0 1-153.648714-105.674115l-1.432988-1.432988-1.023992-1.177991a197.883344 197.883344 0 0 0-11.9799-12.849892c-1.331989-1.485988-2.611978-2.919976-3.942967-4.199965-4.299964-4.75996-8.498929-9.112924-12.133898-14.027882l-0.562995-0.869993-0.716994-0.716994c-1.739985-1.893984-2.201982-2.559979-2.303981-2.764977l-0.459996-0.562995-0.870993-1.17799a55.294537 55.294537 0 0 0-2.866976-3.736969l-0.716994-0.869993a295.827524 295.827524 0 0 1-17.407854-22.988808l-0.511996-0.869992-0.459996-0.563996c0-0.152999-0.153999-0.306997-0.307997-0.459996l-1.023992-2.149982-1.279989-2.048983a519.668651 519.668651 0 0 1-87.755266-273.145714l-0.818993-26.776775H0l144.53479-220.565154L289.11958 502.575794h-94.973205l1.125991 28.773759a413.021543 413.021543 0 0 0 88.471259 238.075008l0.307998 0.306997 0.255998 0.409997a30.207747 30.207747 0 0 0 5.375955 7.525937 442.256299 442.256299 0 0 0 112.739056 95.229203l6.502946 3.789968h1.432988c8.39693 5.374955 17.202856 9.829918 28.466761 14.590878l4.81296 2.047983c8.651928 3.58397 17.765851 7.526937 27.032774 10.239914l2.713977 0.869993 2.763977 0.307997a20.479829 20.479829 0 0 1 5.93995 1.893984l0.869993 0.409997 0.818993 0.306997c7.833934 2.866976 15.51287 4.453963 24.063799 6.194948l2.712977 0.562996h0.153999l5.016958 0.869992 2.35598 0.460997c0.869993 0.153999 2.149982 0.255998 2.559979 0.409996l1.586986 0.562995 1.739986 0.306998c4.095966 0.869993 8.089932 1.17799 12.441896 1.587987l4.351963 0.459996c2.303981 0.255998 4.453963 0.409997 6.04095 0.716994l2.764977 0.562995h1.433988l2.917975 0.460996a50.533577 50.533577 0 0 0 8.805926 0.819993h0.153999c11.9799 1.329989 24.575794 2.046983 38.29668 2.046983a401.091643 401.091643 0 0 0 229.37108-72.395394l0.459996-0.152999 1.587987-1.17799c9.419921-6.501946 19.352838-9.829918 29.336754-9.829918 3.327972 0 6.092949 0.153999 8.39693 0.716994 11.109907 2.047983 21.809817 7.21894 32.664727 15.871868l1.023991 1.535987a52.734559 52.734559 0 0 1-12.748893 72.80439 495.195856 495.195856 0 0 1-290.809566 93.23322z m306.579434-497.396837h94.717207l-1.17699-28.773759a408.925578 408.925578 0 0 0-89.342252-238.792002v-1.842984l-6.348947-7.679936a404.419615 404.419615 0 0 0-146.018778-110.282077l-5.222956-2.610978a145.506782 145.506782 0 0 0-21.963817-8.549929l-2.559978-0.869992a48.229596 48.229596 0 0 0-5.93995-2.048983l-8.088933-3.276973-11.569903-2.866976a144.073794 144.073794 0 0 0-16.383863-3.787968h-0.102999a14.103882 14.103882 0 0 0-2.047983-0.716994l-0.409996-0.153999-0.408997-0.152999-1.637986-0.409996c-2.047983-0.562995-5.324955-1.586987-9.676919-1.739986l-27.135773-4.454962-11.467904-1.637987h-0.511996a401.091643 401.091643 0 0 0-268.435753 70.654409l-0.511996 0.203998-1.535987 1.023992a51.40357 51.40357 0 0 1-29.336755 9.829918 49.662584 49.662584 0 0 1-41.317654-22.424813l-0.204998-0.306997a52.734559 52.734559 0 0 1 12.748893-72.702392A496.884842 496.884842 0 0 1 595.801014 0.008h7.833934c13.003891 0 26.469778 0 39.42267 1.433988l1.637986 0.152999h1.535988c1.17799 0 2.509979 0.153999 4.095965 0.460996 0.869993 0.102999 1.740985 0.102999 2.559979 0.255998h0.511996c2.149982 0.306997 4.709961 0.562995 7.782934 0.716994 4.453963 1.023991 8.805926 1.330989 12.389897 1.586986l4.197965 0.459997c2.303981 0.256998 4.505962 0.409997 6.092949 0.717994l2.764977 0.562995h1.535987l3.327972 1.17699h1.637986c0.409997 0 0.819993 0.153999 1.432988 0.153999l17.459854 4.453962 32.25473 9.215923 13.567886 4.505963 34.559711 12.901892 2.149982 2.149982 4.81196 1.023991 0.255998 0.153999 2.303981 1.023991a496.475845 496.475845 0 0 1 187.081434 142.332809l0.869993 1.17799 3.890967 3.889968c7.21994 8.550928 13.567886 16.486862 19.659835 24.883791v1.842985l4.608962 6.962942a524.941607 524.941607 0 0 1 88.164262 273.759708l0.869993 26.469779 26.469778 0.255998c1.586987 0 39.320671 0.307997 56.830525 0.307997 7.474937 0 8.959925 0 10.239914-0.153999l1.023991-0.153998h0.562996l-144.994787 221.02615-150.165743-219.131166z" p-id="23594"></path></svg>