<?xml version="1.0" standalone="no"?><!DOCTYPE svg PUBLIC "-//W3C//DTD SVG 1.1//EN" "http://www.w3.org/Graphics/SVG/1.1/DTD/svg11.dtd"><svg t="1580972356687" class="icon" viewBox="0 0 1024 1024" version="1.1" xmlns="http://www.w3.org/2000/svg" p-id="2305" xmlns:xlink="http://www.w3.org/1999/xlink" width="200" height="200"><defs><style type="text/css"></style></defs><path d="M959.8 500.4c-3.2-114.9-49.8-223-131.1-304.3-159-159-408.8-173.3-584.1-42.8l-85.4-85.4-87 324.6 324.6-87-71.8-71.9c130.6-87.4 309.3-73.6 424.5 41.7 61 61 95.9 142 98.3 228.2 2.6 93.3-32.3 181.1-98.3 247.1C686.1 814 601.7 849 511.9 849s-174.2-35-237.6-98.4c-61-61-95.9-142.1-98.3-228.3l-112 3.1c3.2 115 49.7 223.1 131.1 304.4C279.7 914.4 392.2 961 511.9 961s232.2-46.6 316.8-131.3C915.5 743 963.2 623 959.8 500.4z" fill="#1E1512" p-id="2306"></path></svg>