<?xml version="1.0" standalone="no"?><!DOCTYPE svg PUBLIC "-//W3C//DTD SVG 1.1//EN" "http://www.w3.org/Graphics/SVG/1.1/DTD/svg11.dtd"><svg t="1581066322833" class="icon" viewBox="0 0 1024 1024" version="1.1" xmlns="http://www.w3.org/2000/svg" p-id="32405" xmlns:xlink="http://www.w3.org/1999/xlink" width="200" height="200"><defs><style type="text/css"></style></defs><path d="M512.585 715.703h-14.628c-14.629 0-21.943-7.314-36.572-21.943l-409.6-270.629C15.214 401.19 7.9 357.303 29.842 328.046l21.943-21.943 409.6-263.314c14.629-14.629 29.257-14.629 36.572-21.943h29.257c14.628 0 21.943 7.314 36.571 21.943l409.6 263.314c14.629 7.314 29.257 29.257 29.257 43.886 7.315 21.942 0 36.571-7.314 58.514l-21.943 21.943-409.6 263.314c-14.628 7.314-21.943 14.629-36.571 14.629-7.315 0-7.315 7.314-14.629 7.314zM88.357 364.617l409.6 263.314c7.314 7.315 14.628 7.315 14.628 14.629l14.629-7.314 409.6-263.315-409.6-270.628c-7.315-7.314-14.629-7.314-14.629-7.314l-14.628 7.314-409.6 263.314z" fill="#9BAABE" p-id="32406"></path><path d="M512.585 1008.274h-14.628c-14.629 0-21.943-7.314-36.572-21.943l-409.6-270.628c-21.943-7.314-29.257-21.943-36.571-43.886 0-14.628 0-36.571 14.628-51.2 0-14.628 7.315-21.943 21.943-21.943l409.6-263.314c14.629-14.629 29.257-14.629 36.572-21.943h29.257c14.628 0 21.943 7.314 36.571 21.943l409.6 263.314c14.629 7.315 29.257 29.257 29.257 43.886 7.315 21.943 0 36.571-7.314 58.514l-21.943 21.943-409.6 263.314c-14.628 7.315-21.943 14.629-36.571 14.629-7.315 0-7.315 7.314-14.629 7.314zM88.357 657.19l409.6 263.314c7.314 7.314 14.628 7.314 14.628 14.628l14.629-7.314 409.6-263.314-409.6-270.629c-7.315-7.314-14.629-7.314-14.629-7.314l-14.628 7.314-409.6 263.315-21.943-29.258 21.943 29.258z m0 0z" fill="#9BAABE" p-id="32407"></path></svg>