<?xml version="1.0" standalone="no"?><!DOCTYPE svg PUBLIC "-//W3C//DTD SVG 1.1//EN" "http://www.w3.org/Graphics/SVG/1.1/DTD/svg11.dtd"><svg t="1581248268499" class="icon" viewBox="0 0 1024 1024" version="1.1" xmlns="http://www.w3.org/2000/svg" p-id="20760" xmlns:xlink="http://www.w3.org/1999/xlink" width="200" height="200"><defs><style type="text/css"></style></defs><path d="M896 128H128a64 64 0 0 0-64 64v640a64 64 0 0 0 64 64h768a64 64 0 0 0 64-64V192a64 64 0 0 0-64-64z m0 704H128V192h768v640z" p-id="20761" fill="#ffffff"></path><path d="M128 333.504h768v64H128zM284.608 782.4l-23.232-22.4a16.256 16.256 0 0 1-0.384-22.784l107.2-110.784a16.128 16.128 0 0 0 0-22.4L261.056 492.8a16.256 16.256 0 0 1 0.384-22.784l23.232-22.4A16.256 16.256 0 0 1 307.456 448l150.4 155.584c6.016 6.4 6.016 16 0 22.4l-150.4 155.584c-6.4 6.4-16.832 6.848-22.848 0.832zM751.424 786.624H529.408a16.064 16.064 0 0 1-16-16v-32c0-8.768 7.232-16 16-16h222.016c8.768 0 16 7.232 16 16v32a16.256 16.256 0 0 1-16 16zM652.416 288.128a6.4 6.4 0 0 1-6.4 6.4h-51.2a6.4 6.4 0 0 1-6.4-6.4v-51.2a6.4 6.4 0 0 1 6.4-6.4h51.2a6.4 6.4 0 0 1 6.4 6.4v51.2zM748.416 288.128a6.4 6.4 0 0 1-6.4 6.4h-51.2a6.4 6.4 0 0 1-6.4-6.4v-51.2a6.4 6.4 0 0 1 6.4-6.4h51.2a6.4 6.4 0 0 1 6.4 6.4v51.2zM843.456 288.128a6.4 6.4 0 0 1-6.4 6.4h-51.2a6.4 6.4 0 0 1-6.4-6.4v-51.2a6.4 6.4 0 0 1 6.4-6.4h51.2a6.4 6.4 0 0 1 6.4 6.4v51.2z" p-id="20762" fill="#ffffff"></path></svg>