<?xml version="1.0" standalone="no"?><!DOCTYPE svg PUBLIC "-//W3C//DTD SVG 1.1//EN" "http://www.w3.org/Graphics/SVG/1.1/DTD/svg11.dtd"><svg t="1581066964522" class="icon" viewBox="0 0 1024 1024" version="1.1" xmlns="http://www.w3.org/2000/svg" p-id="3357" xmlns:xlink="http://www.w3.org/1999/xlink" width="200" height="200"><defs><style type="text/css"></style></defs><path d="M844.224 128H179.776L69.952 347.584 512 878.08l274.368-329.216a32 32 0 1 1 49.152 40.96l-298.88 358.72a32 32 0 0 1-49.28 0l-480-576a32 32 0 0 1-3.968-34.816l128-256A32 32 0 0 1 160 64h704a32 32 0 0 1 28.608 17.664l128 256a32 32 0 1 1-57.216 28.672L844.16 128z" fill="#B1B8C1" p-id="3358"></path><path d="M288 384H768a32 32 0 0 0 0-64H288a32 32 0 0 0 0 64z" fill="#B1B8C1" p-id="3359"></path></svg>