<?xml version="1.0" standalone="no"?><!DOCTYPE svg PUBLIC "-//W3C//DTD SVG 1.1//EN" "http://www.w3.org/Graphics/SVG/1.1/DTD/svg11.dtd"><svg t="1580793363658" class="icon" viewBox="0 0 1024 1024" version="1.1" xmlns="http://www.w3.org/2000/svg" p-id="10002" xmlns:xlink="http://www.w3.org/1999/xlink" width="200" height="200"><defs><style type="text/css"></style></defs><path d="M409.82055664 788.3215332c-15.73725586-10.14082031-20.19462891-31.29257812-9.95888672-47.18012695 9.81650391-15.23496094 29.5246582-20.15112305 45.06020508-11.71889648l0.14633789-0.42714844c120.13945313 54.81738281 262.84658203 1.51083984 319.00078125-119.55410156 56.26889648-121.246875 4.31894531-264.51166992-115.96289062-319.95-120.33720703-55.33549805-263.49521484-1.92612305-319.66918946 119.3840332a243.18193359 243.18193359 0 0 0-22.67841797 104.89658203l78.67836914-0.03955078c3.80874023-0.05141602 5.65576172 4.55625 2.97817383 7.3050293L271.42841797 636.94091797a4.31499023 4.31499023 0 0 1-6.02753906 0.05932617L150.54145508 521.02548828c-2.70922852-2.66176758-0.74750977-7.32084961 2.99399414-7.27338867l83.61035156-0.01582031c-0.27290039-44.62119141 9.0215332-90.16787109 29.12519531-133.48388672C338.60146484 224.38671875 522.42558594 155.77006836 677.04541016 227.02080078c154.61191406 71.2546875 221.35385742 255.21328125 149.02734375 411.07895508-72.14853516 155.58486328-255.63647461 224.28852539-410.06645508 153.54799805l0.06328125-0.0909668a35.07363281 35.07363281 0 0 1-6.24902344-3.23525391z" fill="#FFFFFF" p-id="10003"></path></svg>